<svg width="11" height="11" viewBox="0 0 11 11" fill="none" xmlns="http://www.w3.org/2000/svg">
<path d="M0.258818 0.259794C0.331389 0.187039 0.417601 0.129316 0.512515 0.089931C0.607429 0.0505459 0.709181 0.0302734 0.811943 0.0302734C0.914704 0.0302734 1.01646 0.0505459 1.11137 0.089931C1.20628 0.129316 1.2925 0.187039 1.36507 0.259794L5.49944 4.39573L9.63381 0.259794C9.70645 0.187157 9.79268 0.129538 9.88759 0.0902267C9.98249 0.0509157 10.0842 0.0306825 10.1869 0.0306825C10.2897 0.0306825 10.3914 0.0509157 10.4863 0.0902267C10.5812 0.129538 10.6674 0.187157 10.7401 0.259794C10.8127 0.332432 10.8703 0.418665 10.9096 0.51357C10.9489 0.608475 10.9692 0.710195 10.9692 0.812919C10.9692 0.915644 10.9489 1.01736 10.9096 1.11227C10.8703 1.20717 10.8127 1.29341 10.7401 1.36604L6.60413 5.50042L10.7401 9.63479C10.8127 9.70743 10.8703 9.79366 10.9096 9.88857C10.9489 9.98347 10.9692 10.0852 10.9692 10.1879C10.9692 10.2906 10.9489 10.3924 10.9096 10.4873C10.8703 10.5822 10.8127 10.6684 10.7401 10.741C10.6674 10.8137 10.5812 10.8713 10.4863 10.9106C10.3914 10.9499 10.2897 10.9702 10.1869 10.9702C10.0842 10.9702 9.98249 10.9499 9.88759 10.9106C9.79268 10.8713 9.70645 10.8137 9.63381 10.741L5.49944 6.6051L1.36507 10.741C1.29243 10.8137 1.2062 10.8713 1.11129 10.9106C1.01639 10.9499 0.914668 10.9702 0.811943 10.9702C0.709218 10.9702 0.607499 10.9499 0.512593 10.9106C0.417688 10.8713 0.331455 10.8137 0.258818 10.741C0.18618 10.6684 0.128561 10.5822 0.0892502 10.4873C0.0499391 10.3924 0.0297059 10.2906 0.0297059 10.1879C0.0297059 10.0852 0.0499391 9.98347 0.0892502 9.88857C0.128561 9.79366 0.18618 9.70743 0.258818 9.63479L4.39475 5.50042L0.258818 1.36604C0.186063 1.29347 0.128339 1.20726 0.0889544 1.11235C0.0495693 1.01743 0.0292969 0.915681 0.0292969 0.812919C0.0292969 0.710158 0.0495693 0.608406 0.0889544 0.513492C0.128339 0.418578 0.186063 0.332366 0.258818 0.259794Z" fill="#E8152A"/>
</svg>
