<svg width="49" height="66" viewBox="0 0 49 66" fill="none" xmlns="http://www.w3.org/2000/svg">
<path d="M5.63765 0.483154C2.85727 0.483154 0.595642 2.71156 0.595642 5.45071V60.1494C0.595642 62.8886 2.85727 65.117 5.6373 65.117H43.362C46.1424 65.117 48.404 62.8886 48.404 60.1494V18.8366C48.404 18.5154 48.278 18.2065 48.052 17.9745L31.3844 0.864642C31.1473 0.621207 30.8198 0.483471 30.4775 0.483471H5.6368L5.63765 0.483154ZM5.63765 2.96881H28.2741V19.1275C28.2741 19.8139 28.8373 20.3703 29.5321 20.3703H45.8878V60.1485C45.8878 61.5167 44.7549 62.6305 43.3626 62.6305H5.63789C4.24515 62.6305 3.1122 61.5172 3.1122 60.1485V5.44978C3.1122 4.08155 4.24512 2.96775 5.63789 2.96775L5.63765 2.96881ZM30.7902 3.83869L44.4722 17.8841H30.7902V3.83869ZM23.9881 19.0321C23.6764 19.0285 23.3267 19.0674 22.9363 19.1639C21.9506 19.4073 20.3647 20.3582 20.8173 23.9924C21.0174 25.5981 21.6125 27.6435 22.4945 29.8459C22.0202 31.3138 21.4922 32.8486 20.973 34.3573C20.4839 35.7786 19.9776 37.2484 19.5275 38.6335H19.527C19.1657 39.745 18.8346 40.7956 18.5219 41.7891C18.0838 43.1811 17.6863 44.4426 17.2964 45.5848C10.5698 49.3581 7.88238 52.6261 7.71804 54.6368C7.65088 55.4536 7.97418 56.1637 8.60455 56.5843C8.9209 56.7952 9.37434 56.9737 10.0048 56.9737C10.6384 56.9737 11.4507 56.7934 12.4809 56.2845C16.1117 54.4908 17.8258 51.5251 19.3548 47.2989C20.6467 46.6006 22.1102 45.8708 23.7684 45.1147C26.3835 43.9227 28.6104 43.1864 30.4811 42.7536C32.6446 44.9985 34.9331 46.4719 37.0803 46.4719C39.416 46.4719 41.0636 45.7091 41.6004 44.3799C41.9959 43.3997 41.6939 42.3097 40.7917 41.4646C39.5105 40.2643 37.2313 39.6488 34.3786 39.7294C33.4314 39.7564 32.43 39.8621 31.3837 40.0438C29.0128 37.2324 26.7108 33.3282 25.1643 29.7343C26.7493 24.6811 27.3282 21.3792 25.8832 19.8285C25.5219 19.4409 24.9239 19.0432 23.9879 19.0318L23.9881 19.0321ZM23.9696 21.5154C24.0122 21.5159 24.034 21.5182 24.0349 21.5154C24.0798 21.5699 24.5393 22.2329 23.713 25.6539C23.5254 24.9492 23.3897 24.2884 23.3151 23.689C23.1294 22.1968 23.3962 21.6129 23.5463 21.5759C23.7602 21.5233 23.8964 21.5159 23.9691 21.5159L23.9696 21.5154ZM24.0173 33.2233C25.3179 35.8265 26.9199 38.4448 28.6661 40.6595C26.7709 41.1825 24.7705 41.9193 22.7144 42.8569C21.9377 43.211 21.1953 43.5629 20.488 43.9112C20.6311 43.4609 20.7766 42.9992 20.9257 42.527C21.236 41.5409 21.5649 40.4971 21.9239 39.3939H21.9234C22.3676 38.0285 22.8701 36.5688 23.356 35.1571C23.5852 34.4917 23.8062 33.8474 24.0178 33.2223L24.0173 33.2233ZM34.5743 42.2121C36.8327 42.176 38.0643 42.6747 38.4441 42.8619C38.98 43.1264 39.1852 43.3822 39.2398 43.487C39.1051 43.6325 38.5201 43.9857 37.0805 43.9857C36.0106 43.9857 34.7966 43.3405 33.5428 42.2629C33.9078 42.2332 34.2515 42.2171 34.5739 42.2121H34.5743ZM15.7547 49.4347C14.6884 51.5698 13.3976 53.0524 11.3559 54.0609C10.9071 54.2828 10.575 54.3903 10.3443 54.4416C10.7302 53.6051 12.1409 51.8104 15.7546 49.4347H15.7547Z" fill="black"/>
</svg>
