<svg width="55" height="59" viewBox="0 0 55 59" fill="none" xmlns="http://www.w3.org/2000/svg">
<path d="M52.6898 7.75812H40.0457C38.2671 3.49764 34.2718 0.700195 29.8105 0.700195H25.19C20.7286 0.700195 16.7338 3.49764 14.9547 7.75812H2.31061C1.54897 7.75812 0.931061 8.39842 0.931061 9.18875C0.931061 9.97859 1.5485 10.6194 2.31061 10.6194H7.01381V50.3442C7.01381 54.841 10.5422 58.5 14.8783 58.5H40.1237C44.4599 58.5 47.9882 54.841 47.9882 50.3442L47.9887 10.6194H52.6919C53.4535 10.6194 54.0714 9.97909 54.0714 9.18875C54.0705 8.39845 53.4522 7.75812 52.6905 7.75812H52.6898ZM25.1892 3.56136H29.8096C32.7499 3.56136 35.4254 5.18604 36.9464 7.75812H18.0515C19.5729 5.18652 22.2479 3.56136 25.1887 3.56136H25.1892ZM45.2263 50.3446C45.2263 53.2634 42.9364 55.6391 40.1208 55.6391H14.8766C12.062 55.6391 9.77117 53.2644 9.77117 50.3446V10.6198H45.2272L45.2263 50.3446ZM22.8043 22.4326V41.0722C22.8043 41.862 22.1869 42.5028 21.4248 42.5028C20.6631 42.5028 20.0452 41.8625 20.0452 41.0722L20.0457 22.4326C20.0457 21.6427 20.6631 21.0019 21.4252 21.0019C22.1864 21.0019 22.8043 21.6427 22.8043 22.4326H22.8043ZM28.8788 18.8279V44.6771C28.8788 45.4669 28.2614 46.1077 27.4993 46.1077C26.7377 46.1077 26.1197 45.4674 26.1197 44.6771L26.1202 18.8279C26.1202 18.038 26.7376 17.3972 27.4997 17.3972C28.2605 17.3968 28.8788 18.0375 28.8788 18.8279H28.8788ZM34.952 22.4326V41.0722C34.952 41.862 34.3345 42.5028 33.5724 42.5028C32.8113 42.5023 32.1934 41.862 32.1934 41.0722V22.4326C32.1934 21.6427 32.8108 21.0019 33.5729 21.0019C34.3345 21.0019 34.952 21.6427 34.952 22.4326V22.4326Z" fill="black"/>
</svg>
